<svg xmlns="http://www.w3.org/2000/svg" width="96" height="96" viewBox="0 0 96 96" fill="none">
  <defs>
    <linearGradient id="ticket-stroke" x1="15" y1="17" x2="82" y2="80" gradientUnits="userSpaceOnUse">
      <stop stop-color="#56B5FF"/>
      <stop offset="0.52" stop-color="#2B8DF8"/>
      <stop offset="1" stop-color="#327BEF"/>
    </linearGradient>
    <linearGradient id="ticket-fill" x1="48" y1="18" x2="48" y2="79" gradientUnits="userSpaceOnUse">
      <stop stop-color="#FFFFFF"/>
      <stop offset="1" stop-color="#F7FBFF"/>
    </linearGradient>
    <radialGradient id="bubble-large" cx="0" cy="0" r="1" gradientTransform="translate(38 42) rotate(45) scale(10)">
      <stop stop-color="#FFFFFF" stop-opacity="0.94"/>
      <stop offset="0.35" stop-color="#DDECFF" stop-opacity="0.88"/>
      <stop offset="1" stop-color="#8FC3FF" stop-opacity="0.68"/>
    </radialGradient>
    <radialGradient id="bubble-small" cx="0" cy="0" r="1" gradientTransform="translate(67 34) rotate(45) scale(6.5)">
      <stop stop-color="#FFFFFF" stop-opacity="0.96"/>
      <stop offset="0.45" stop-color="#DFF6FF" stop-opacity="0.9"/>
      <stop offset="1" stop-color="#A5D9F9" stop-opacity="0.62"/>
    </radialGradient>
    <linearGradient id="mint-peel" x1="13" y1="58" x2="49" y2="82" gradientUnits="userSpaceOnUse">
      <stop stop-color="#78E9D5"/>
      <stop offset="1" stop-color="#35D2B6"/>
    </linearGradient>
    <linearGradient id="mint-flesh" x1="19" y1="61" x2="43" y2="81" gradientUnits="userSpaceOnUse">
      <stop stop-color="#A7F3E4"/>
      <stop offset="1" stop-color="#57DEC5"/>
    </linearGradient>
    <linearGradient id="purple-peel" x1="57" y1="57" x2="84" y2="80" gradientUnits="userSpaceOnUse">
      <stop stop-color="#B5A2FF"/>
      <stop offset="1" stop-color="#8874ED"/>
    </linearGradient>
    <linearGradient id="purple-flesh" x1="61" y1="59" x2="81" y2="77" gradientUnits="userSpaceOnUse">
      <stop stop-color="#D5CAFF"/>
      <stop offset="1" stop-color="#9C87F5"/>
    </linearGradient>
    <clipPath id="ticket-clip">
      <path d="M18 19H38.5C39.2 24 43.2 27.5 48 27.5S56.8 24 57.5 19H78C81.3 19 84 21.7 84 25V71C84 74.3 81.3 77 78 77H58C57.3 72 53.1 68.5 48 68.5S38.7 72 38 77H18C14.7 77 12 74.3 12 71V25C12 21.7 14.7 19 18 19Z"/>
    </clipPath>
  </defs>

  <g clip-path="url(#ticket-clip)">
    <path d="M18 19H38.5C39.2 24 43.2 27.5 48 27.5S56.8 24 57.5 19H78C81.3 19 84 21.7 84 25V71C84 74.3 81.3 77 78 77H58C57.3 72 53.1 68.5 48 68.5S38.7 72 38 77H18C14.7 77 12 74.3 12 71V25C12 21.7 14.7 19 18 19Z" fill="url(#ticket-fill)"/>
    <path d="M10 25C27 29 47 28 86 21V15H10V25Z" fill="#EAF6FF" fill-opacity="0.72"/>

    <circle cx="38" cy="42" r="8.5" fill="url(#bubble-large)"/>
    <circle cx="35.7" cy="39.4" r="2.1" fill="#FFFFFF" fill-opacity="0.9"/>
    <circle cx="67" cy="34" r="5.5" fill="url(#bubble-small)"/>
    <circle cx="65.4" cy="32.3" r="1.25" fill="#FFFFFF" fill-opacity="0.9"/>
    <circle cx="72.5" cy="27.5" r="3.1" fill="#A5F0E2" fill-opacity="0.58"/>
    <circle cx="28.5" cy="31.5" r="2.2" fill="#CAE7FF" fill-opacity="0.68"/>

    <circle cx="20" cy="78" r="27" fill="url(#mint-peel)"/>
    <circle cx="20" cy="78" r="21" fill="url(#mint-flesh)" stroke="#E9FFFA" stroke-width="2"/>
    <path d="M20 78L16 57.4M20 78L34.2 62.8M20 78L41 76M20 78L32 95" stroke="#F5FFFD" stroke-width="2" stroke-linecap="round"/>
    <circle cx="20" cy="78" r="3.2" fill="#E9FFFA"/>

    <circle cx="77" cy="76" r="22" fill="url(#purple-peel)"/>
    <circle cx="77" cy="76" r="17" fill="url(#purple-flesh)" stroke="#F4F0FF" stroke-width="1.8"/>
    <path d="M77 76L63.5 65.6M77 76L78.5 59M77 76L92.7 67M77 76L93.2 84M77 76L72.4 92.4" stroke="#F5F1FF" stroke-width="1.8" stroke-linecap="round"/>
    <circle cx="77" cy="76" r="2.8" fill="#F4F0FF"/>
  </g>

  <path d="M18 17H40C40 21.4 43.6 25 48 25S56 21.4 56 17H78C82.4 17 86 20.6 86 25V71C86 75.4 82.4 79 78 79H56C56 74.6 52.4 71 48 71S40 74.6 40 79H18C13.6 79 10 75.4 10 71V25C10 20.6 13.6 17 18 17Z" stroke="#CBE8FF" stroke-width="6" stroke-linejoin="round"/>
  <path d="M18 17H40C40 21.4 43.6 25 48 25S56 21.4 56 17H78C82.4 17 86 20.6 86 25V71C86 75.4 82.4 79 78 79H56C56 74.6 52.4 71 48 71S40 74.6 40 79H18C13.6 79 10 75.4 10 71V25C10 20.6 13.6 17 18 17Z" stroke="url(#ticket-stroke)" stroke-width="3.5" stroke-linejoin="round"/>
  <path d="M18 21H37.2C39 25.8 43 29 48 29S57 25.8 58.8 21H78C80.2 21 82 22.8 82 25V71C82 73.2 80.2 75 78 75H59.2C57.3 70 53.1 67 48 67S38.7 70 36.8 75H18C15.8 75 14 73.2 14 71V25C14 22.8 15.8 21 18 21Z" stroke="#8DC9FF" stroke-opacity="0.62" stroke-width="1" stroke-linejoin="round"/>
</svg>
