<svg xmlns="http://www.w3.org/2000/svg" width="28" height="28" viewBox="0 0 28 28" fill="none" stroke="#9AA5B9" stroke-width="1.8" stroke-linecap="round" stroke-linejoin="round"><circle cx="14" cy="14" r="3.5"/><path d="M22.2 17.5a2 2 0 0 0 .4 2.2l.2.2-3.2 3.2-.2-.2a2 2 0 0 0-2.2-.4 2 2 0 0 0-1.2 1.9v.3h-4v-.3a2 2 0 0 0-1.2-1.9 2 2 0 0 0-2.2.4l-.2.2-3.2-3.2.2-.2a2 2 0 0 0 .4-2.2A2 2 0 0 0 4 16.3H3.7v-4H4a2 2 0 0 0 1.9-1.2 2 2 0 0 0-.4-2.2l-.2-.2 3.2-3.2.2.2a2 2 0 0 0 2.2.4A2 2 0 0 0 12 4.2v-.3h4v.3a2 2 0 0 0 1.2 1.9 2 2 0 0 0 2.2-.4l.2-.2 3.2 3.2-.2.2a2 2 0 0 0-.4 2.2 2 2 0 0 0 1.9 1.2h.3v4h-.3a2 2 0 0 0-1.9 1.2z"/></svg>