<svg xmlns="http://www.w3.org/2000/svg" width="28" height="28" viewBox="0 0 28 28" fill="none" stroke="#5797F5" stroke-width="2" stroke-linecap="round" stroke-linejoin="round"><path d="M4 8a2.5 2.5 0 0 0 2.5-2.5h15A2.5 2.5 0 0 0 24 8v3a2.5 2.5 0 0 0 0 5v3a2.5 2.5 0 0 0-2.5 2.5h-15A2.5 2.5 0 0 0 4 19v-3a2.5 2.5 0 0 0 0-5z" fill="#EAF4FF"/><path d="M4 8a2.5 2.5 0 0 0 2.5-2.5h15A2.5 2.5 0 0 0 24 8v3a2.5 2.5 0 0 0 0 5v3a2.5 2.5 0 0 0-2.5 2.5h-15A2.5 2.5 0 0 0 4 19v-3a2.5 2.5 0 0 0 0-5z"/><path d="m10 14 2.5 2.5L18 11"/></svg>